#define wifi_off_width 25
#define wifi_off_height 25
static unsigned char wifi_off_bits[] = {
   0x00, 0x00, 0x00, 0x00, 0x00, 0x00, 0x00, 0x00, 0x00, 0x00, 0x00, 0x00,
   0x10, 0x00, 0x04, 0x00, 0x20, 0x00, 0x02, 0x00, 0x44, 0x7f, 0x11, 0x00,
   0x88, 0x80, 0x08, 0x00, 0x18, 0x41, 0x0c, 0x00, 0x24, 0x3e, 0x12, 0x00,
   0x62, 0x14, 0x23, 0x00, 0x92, 0x88, 0x24, 0x00, 0xcc, 0x41, 0x19, 0x00,
   0x20, 0x22, 0x02, 0x00, 0x10, 0x41, 0x04, 0x00, 0xa0, 0x88, 0x02, 0x00,
   0x40, 0x1c, 0x01, 0x00, 0x20, 0x22, 0x02, 0x00, 0x10, 0x41, 0x04, 0x00,
   0x88, 0xa2, 0x08, 0x00, 0x40, 0x14, 0x01, 0x00, 0x20, 0x08, 0x02, 0x00,
   0x00, 0x00, 0x00, 0x00, 0x00, 0x00, 0x00, 0x00, 0x00, 0x00, 0x00, 0x00,
   0x00, 0x00, 0x00, 0x00 };
